<svg xmlns="http://www.w3.org/2000/svg" width="84" height="7" fill="none">
    <path fill="#fff" fill-opacity=".64" fill-rule="evenodd"
        d="M19.95 3.296C19.95 1.462 21.477 0 24.355 0c2.88 0 4.424 1.462 4.424 3.296 0 1.86-1.456 3.342-4.407 3.342S19.95 5.156 19.95 3.296Zm2.88-.039c-.018 1.175.443 2.358 1.494 2.377 1.083.02 1.549-1.175 1.568-2.322.021-1.217-.499-2.298-1.483-2.316-.985-.017-1.557 1.044-1.578 2.261Z"
        clip-rule="evenodd" />
    <path fill="#fff" fill-opacity=".64"
        d="M1.423 1.103 4.314 6.45l3.347.003 2.842-5.35h1.425v-.97H7.643v.97H8.88L6.81 4.998 4.715 1.103h1.504v-.97H0L0 1.104h1.423ZM38.258 1.1V.134h5.732v.967h-1.428v4.365h1.324c1.226 0 2.03-.825 2.03-1.944h.946v2.923h-8.604v-.978h1.445L39.7 1.1h-1.443ZM56.64 1.103l2.89 5.347 3.348.003 2.841-5.35h1.425v-.97h-4.285v.97h1.238l-2.07 3.895-2.096-3.895h1.503v-.97h-6.217v.97h1.422Z" />
    <path fill="#fff" fill-opacity=".64" fill-rule="evenodd"
        d="M75.17 3.296C75.17 1.462 76.697 0 79.575 0 82.456 0 84 1.462 84 3.296c0 1.86-1.456 3.342-4.407 3.342-2.952 0-4.424-1.482-4.424-3.342Zm2.88-.039c-.019 1.175.443 2.358 1.494 2.377 1.082.02 1.548-1.175 1.567-2.322.021-1.217-.498-2.298-1.483-2.316-.984-.017-1.556 1.044-1.577 2.261Z"
        clip-rule="evenodd" />
</svg>